<svg xmlns="http://www.w3.org/2000/svg" viewBox="0 0 2110.63 3232.87"><defs><style>.cls-1{fill:none;stroke:#000;stroke-miterlimit:10;stroke-width:5px;}.cls-2{fill:#fc5c65;}.cls-3,.cls-39,.cls-7{font-size:31.99px;}.cls-3,.cls-43,.cls-49,.cls-7{fill:#fff;}.cls-3,.cls-39,.cls-43,.cls-50,.cls-7{font-family:MyriadPro-Regular, Myriad Pro;}.cls-4{letter-spacing:0.01em;}.cls-5{fill:#26de81;}.cls-6{letter-spacing:0em;}.cls-28,.cls-7{letter-spacing:0em;}.cls-8{letter-spacing:0em;}.cls-9{letter-spacing:0em;}.cls-10{letter-spacing:-0.01em;}.cls-11{letter-spacing:0em;}.cls-12{letter-spacing:-0.01em;}.cls-13{letter-spacing:0em;}.cls-14{letter-spacing:-0.03em;}.cls-15{letter-spacing:-0.01em;}.cls-16{letter-spacing:-0.01em;}.cls-17{letter-spacing:-0.02em;}.cls-18{letter-spacing:0em;}.cls-19{letter-spacing:-0.05em;}.cls-20{letter-spacing:-0.01em;}.cls-21{letter-spacing:-0.01em;}.cls-22{letter-spacing:-0.03em;}.cls-23{fill:#fd9644;}.cls-24{letter-spacing:-0.03em;}.cls-25{letter-spacing:0em;}.cls-26{letter-spacing:0.02em;}.cls-27{letter-spacing:-0.01em;}.cls-29{letter-spacing:-0.04em;}.cls-30{letter-spacing:-0.06em;}.cls-31{letter-spacing:-0.07em;}.cls-32{letter-spacing:-0.01em;}.cls-33{letter-spacing:0em;}.cls-34{letter-spacing:-0.04em;}.cls-35{letter-spacing:-0.02em;}.cls-36{letter-spacing:-0.01em;}.cls-37{letter-spacing:-0.01em;}.cls-38{letter-spacing:0em;}.cls-40{letter-spacing:-0.02em;}.cls-41{letter-spacing:0em;}.cls-42{fill:#a55eea;}.cls-43{font-size:20px;}.cls-44{fill:#45aaf2;}.cls-45{fill:#4b7bec;}.cls-46{letter-spacing:0em;}.cls-47{letter-spacing:-0.01em;}.cls-48{letter-spacing:0.01em;}.cls-50{font-size:48px;}.cls-51{letter-spacing:-0.01em;}</style></defs><g id="Layer_2" data-name="Layer 2"><g id="Layer_1-2" data-name="Layer 1"><line class="cls-1" x1="1158.71" y1="3212.14" x2="1608.85" y2="3212.14"/><line class="cls-1" x1="999.88" y1="2185.77" x2="1253.38" y2="2379.29"/><line class="cls-1" x1="1252.58" y1="2057.82" x2="1254.18" y2="2379.29"/><line class="cls-1" x1="1514.88" y1="2190.57" x2="1254.18" y2="2376.1"/><line class="cls-1" x1="1254.18" y1="2376.1" x2="1558.06" y2="2472.06"/><line class="cls-1" x1="1254.18" y1="2379.29" x2="1383.73" y2="2673.58"/><line class="cls-1" x1="1254.18" y1="2376.1" x2="1118.24" y2="2671.98"/><line class="cls-1" x1="1254.18" y1="2379.29" x2="947.1" y2="2472.06"/><line class="cls-1" x1="1158.68" y1="3220.1" x2="1384.87" y2="2993.91"/><line class="cls-1" x1="1609.76" y1="3219.68" x2="1383.57" y2="2993.5"/><line class="cls-1" x1="1558.06" y1="2472.06" x2="1609.24" y2="3218.96"/><line class="cls-1" x1="1383.73" y1="2673.58" x2="1383.73" y2="2993.45"/><line class="cls-1" x1="1558.86" y1="2471.26" x2="1785.17" y2="2244.95"/><line class="cls-1" x1="1558.06" y1="2472.06" x2="1877.93" y2="2472.06"/><line class="cls-1" x1="1382.93" y1="2662.78" x2="1118.24" y2="2662.78"/><line class="cls-1" x1="1785.17" y1="2244.95" x2="1877.93" y2="2472.06"/><line class="cls-1" x1="1785.97" y1="2244.15" x2="1785.97" y2="1924.28"/><line class="cls-1" x1="1253.38" y1="2058.62" x2="1785.97" y2="1924.28"/><line class="cls-1" x1="1786.77" y1="1924.28" x2="1786.77" y2="1604.4"/><line class="cls-1" x1="946.3" y1="2472.86" x2="1117.44" y2="2672.78"/><line class="cls-1" x1="947.9" y1="2472.86" x2="400.12" y2="1897.89"/><line class="cls-1" x1="999.88" y1="2185.77" x2="731.19" y2="2011.44"/><line class="cls-1" x1="731.99" y1="2010.64" x2="1251.78" y2="2057.02"/><line class="cls-1" x1="400.12" y1="1897.89" x2="731.19" y2="2011.44"/><line class="cls-1" x1="1250.98" y1="2057.82" x2="1250.98" y2="1737.95"/><line class="cls-1" x1="400.12" y1="1897.89" x2="1250.98" y2="1736.35"/><line class="cls-1" x1="1251.78" y1="1737.15" x2="1024.67" y2="1510.04"/><line class="cls-1" x1="1250.98" y1="1736.35" x2="1478.09" y2="1509.24"/><line class="cls-1" x1="1478.89" y1="1510.04" x2="1024.67" y2="1510.04"/><line class="cls-1" x1="1478.89" y1="1510.04" x2="1478.89" y2="1190.17"/><line class="cls-1" x1="400.12" y1="1897.89" x2="1025.47" y2="1509.24"/><line class="cls-1" x1="1025.47" y1="1510.04" x2="1025.47" y2="1190.17"/><line class="cls-1" x1="1027.87" y1="1190.17" x2="1478.89" y2="1190.17"/><line class="cls-1" x1="400.92" y1="1897.89" x2="81.05" y2="1897.89"/><line class="cls-1" x1="1025.47" y1="1509.24" x2="1478.09" y2="1189.37"/><line class="cls-1" x1="1478.89" y1="1190.17" x2="1251.78" y2="963.06"/><line class="cls-1" x1="1478.09" y1="1189.37" x2="1704.4" y2="963.06"/><line class="cls-1" x1="1704.4" y1="963.06" x2="1251.78" y2="963.06"/><line class="cls-1" x1="1786.77" y1="1605.2" x2="2013.88" y2="1378.09"/><line class="cls-1" x1="2013.88" y1="1378.09" x2="2013.88" y2="1058.22"/><line class="cls-1" x1="2013.88" y1="1058.22" x2="1703.6" y2="962.26"/><line class="cls-1" x1="2013.88" y1="1378.09" x2="1703.6" y2="962.26"/><line class="cls-1" x1="1703.6" y1="962.26" x2="1477.29" y2="735.95"/><line class="cls-1" x1="1476.89" y1="737.15" x2="1476.49" y2="456.86"/><line class="cls-1" x1="1477.29" y1="734.35" x2="1251.78" y2="963.06"/><line class="cls-1" x1="1476.49" y1="456.86" x2="1251.78" y2="963.06"/><line class="cls-1" x1="1476.49" y1="456.86" x2="1476.49" y2="95.4"/><line class="cls-1" x1="1477.29" y1="96.2" x2="1704.4" y2="963.06"/><line class="cls-1" x1="1252.58" y1="962.26" x2="1476.49" y2="95.4"/><rect class="cls-2" x="1737.24" y="1892.36" width="96.21" height="44.77"/><text class="cls-3" transform="translate(1752.24 1924.14)"><tspan class="cls-4">M</tspan><tspan x="25.91" y="0">etz</tspan></text><rect class="cls-5" x="1401.44" y="2155.35" width="225.09" height="44.77"/><text class="cls-3" transform="translate(1416.44 2187.12)"><tspan class="cls-6">M</tspan><tspan x="25.81" y="0">useum Dijon</tspan></text><rect class="cls-2" x="1695.92" y="2212.35" width="176.12" height="44.77"/><text class="cls-7" transform="translate(1710.92 2244.12)">S<tspan class="cls-8" x="15.67" y="0">t</tspan><tspan class="cls-9" x="26.26" y="0">r</tspan><tspan class="cls-8" x="36.56" y="0">asbou</tspan><tspan class="cls-10" x="118.03" y="0">r</tspan><tspan class="cls-8" x="128.24" y="0">g</tspan></text><rect class="cls-2" x="1481.59" y="2440.38" width="158.78" height="44.77"/><text class="cls-3" transform="translate(1496.59 2472.15)"><tspan class="cls-11">B</tspan><tspan x="17.46" y="0">esan</tspan><tspan class="cls-12" x="79.33" y="0">c</tspan><tspan class="cls-13" x="93.47" y="0">on</tspan></text><rect class="cls-2" x="1325.59" y="2961.8" width="120.78" height="44.77"/><text class="cls-3" transform="translate(1340.59 2993.58)"><tspan class="cls-4">M</tspan><tspan x="25.91" y="0">â</tspan><tspan class="cls-12" x="41.33" y="0">c</tspan><tspan class="cls-13" x="55.47" y="0">on</tspan></text><rect class="cls-2" x="1109.83" y="3187.8" width="94.29" height="44.77"/><text class="cls-3" transform="translate(1124.84 3219.58)"><tspan class="cls-14">L</tspan><tspan class="cls-15" x="14.23" y="0">y</tspan><tspan x="28.98" y="0">on</tspan></text><rect class="cls-2" x="1250.71" y="2641.05" width="270.54" height="44.77"/><text class="cls-3" transform="translate(1265.71 2672.82)">Châlon-Su<tspan class="cls-9" x="137.8" y="0">r</tspan><tspan x="148.1" y="0">-</tspan><tspan class="cls-6" x="157.92" y="0">S</tspan><tspan class="cls-8" x="173.78" y="0">aône</tspan></text><rect class="cls-2" x="1200.52" y="2349.58" width="101.87" height="44.77"/><text class="cls-3" transform="translate(1215.52 2381.35)">Dijon</text><rect class="cls-2" x="878.49" y="2440.58" width="133.93" height="44.77"/><text class="cls-3" transform="translate(893.49 2472.35)"><tspan class="cls-16">A</tspan><tspan x="19.19" y="0">u</tspan><tspan class="cls-17" x="36.82" y="0">x</tspan><tspan x="51.15" y="0">e</tspan><tspan class="cls-18" x="67.17" y="0">r</tspan><tspan class="cls-15" x="77.76" y="0">r</tspan><tspan x="87.9" y="0">e</tspan></text><rect class="cls-2" x="1193.73" y="2026.42" width="115.41" height="44.77"/><text class="cls-3" transform="translate(1208.77 2058.19)"><tspan class="cls-19">T</tspan><tspan class="cls-20" x="14.46" y="0">r</tspan><tspan class="cls-21" x="24.6" y="0">o</tspan><tspan class="cls-15" x="41.94" y="0">y</tspan><tspan x="56.68" y="0">es</tspan></text><rect class="cls-2" x="1196.36" y="1706.01" width="110.19" height="44.77"/><text class="cls-3" transform="translate(1211.36 1737.78)"><tspan class="cls-11">R</tspan><tspan x="17.34" y="0">eims</tspan></text><rect class="cls-2" x="986.6" y="1477.61" width="83.71" height="44.77"/><text class="cls-3" transform="translate(1001.6 1509.38)">Lille</text><rect class="cls-2" x="1429.51" y="1158.62" width="103.89" height="44.77"/><text class="cls-3" transform="translate(1444.51 1190.39)"><tspan class="cls-4">M</tspan><tspan x="25.91" y="0">ons</tspan></text><rect class="cls-2" x="1628.92" y="931.16" width="151.07" height="44.77"/><text class="cls-3" transform="translate(1643.92 962.93)">Cha<tspan class="cls-11" x="51.72" y="0">r</tspan><tspan x="62.31" y="0">le</tspan><tspan class="cls-20" x="85.88" y="0">r</tspan><tspan class="cls-13" x="96.02" y="0">oi</tspan></text><rect class="cls-2" x="1415.84" y="425.04" width="121.23" height="44.77"/><text class="cls-3" transform="translate(1430.84 456.82)">Namur</text><rect class="cls-5" x="1398.46" y="69.7" width="152" height="44.77"/><text class="cls-3" transform="translate(1413.45 101.48)"><tspan class="cls-22">W</tspan><tspan x="26.01" y="0">alibi BE</tspan></text><rect class="cls-23" x="1407.56" y="704.08" width="139.78" height="44.77"/><text class="cls-3" transform="translate(1422.56 735.85)"><tspan class="cls-24">F</tspan><tspan class="cls-25" x="14.75" y="0">r</tspan><tspan x="25.05" y="0">anca</tspan><tspan class="cls-26" x="87.96" y="0">r</tspan><tspan x="99.19" y="0">t</tspan></text><rect class="cls-2" x="1178.67" y="931.4" width="149.57" height="44.77"/><text class="cls-3" transform="translate(1193.67 963.17)">Bru<tspan class="cls-17" x="45.42" y="0">x</tspan><tspan x="59.75" y="0">elles</tspan></text><rect class="cls-5" x="934.44" y="1158.82" width="186.03" height="44.77"/><text class="cls-3" transform="translate(949.44 1190.59)"><tspan class="cls-6">M</tspan><tspan x="25.81" y="0">usée </tspan><tspan class="cls-27" x="94.94" y="0">L</tspan><tspan x="109.59" y="0">ens</tspan></text><rect class="cls-23" x="1405.33" y="1477.48" width="142.24" height="44.77"/><text class="cls-3" transform="translate(1420.33 1509.25)"><tspan class="cls-28">A</tspan><tspan x="19.48" y="0">l</tspan><tspan class="cls-29" x="27.03" y="0"> </tspan><tspan class="cls-30" x="32.5" y="0">T</tspan><tspan class="cls-8" x="46.35" y="0">aglio</tspan></text><rect class="cls-5" y="1865.46" width="161.11" height="44.77"/><text class="cls-3" transform="translate(15.03 1897.24)"><tspan class="cls-31">T</tspan><tspan x="13.63" y="0">our Ei</tspan><tspan class="cls-32" x="89.27" y="0">ff</tspan><tspan x="107.51" y="0">el</tspan></text><rect class="cls-2" x="354.4" y="1866.46" width="92.34" height="44.77"/><text class="cls-3" transform="translate(369.4 1898.24)"><tspan class="cls-24">P</tspan><tspan x="16.19" y="0">a</tspan><tspan class="cls-18" x="31.6" y="0">r</tspan><tspan class="cls-13" x="42.19" y="0">is</tspan></text><rect class="cls-5" x="603.26" y="1979.99" width="255.73" height="44.77"/><text class="cls-3" transform="translate(618.26 2011.77)">DisneyLand <tspan class="cls-24" x="163.39" y="0">P</tspan><tspan x="179.57" y="0">a</tspan><tspan class="cls-11" x="194.99" y="0">r</tspan><tspan x="205.58" y="0">is</tspan></text><rect class="cls-23" x="928.15" y="2153.99" width="145.95" height="44.77"/><text class="cls-3" transform="translate(943.15 2185.77)">E<tspan class="cls-17" x="15.74" y="0">x</tspan><tspan class="cls-12" x="30.07" y="0">c</tspan><tspan x="44.21" y="0">elsior</tspan></text><rect class="cls-23" x="1049.72" y="2641.58" width="136.8" height="44.77"/><text class="cls-3" transform="translate(1064.72 2673.35)"><tspan class="cls-33">E</tspan><tspan class="cls-8" x="15.61" y="0">c</tspan><tspan class="cls-11" x="29.94" y="0">r</tspan><tspan x="40.53" y="0">it</tspan><tspan class="cls-34" x="58.6" y="0"> </tspan><tspan class="cls-35" x="64.23" y="0">V</tspan><tspan x="81.57" y="0">in</tspan></text><rect class="cls-23" x="1418.77" y="3188.1" width="374.02" height="44.77"/><text class="cls-3" transform="translate(1433.77 3219.87)">B<tspan class="cls-25" x="17.34" y="0">r</tspan><tspan x="27.64" y="0">asse</tspan><tspan class="cls-18" x="84.41" y="0">r</tspan><tspan class="cls-13" x="95" y="0">ie </tspan><tspan class="cls-11" x="125.29" y="0">B</tspan><tspan class="cls-13" x="142.76" y="0">ou</tspan><tspan class="cls-36" x="177.94" y="0">r</tspan><tspan x="188.15" y="0">g-En-B</tspan><tspan class="cls-20" x="276.49" y="0">r</tspan><tspan class="cls-8" x="286.63" y="0">esse</tspan></text><rect class="cls-23" x="1799.45" y="2440.42" width="156.8" height="44.77"/><text class="cls-3" transform="translate(1814.45 2472.19)"><tspan class="cls-27">L</tspan><tspan x="14.65" y="0">es </tspan><tspan class="cls-28" x="50.12" y="0">A</tspan><tspan x="69.6" y="0">li</tspan><tspan class="cls-21" x="84.64" y="0">z</tspan><tspan x="98.1" y="0">és</tspan></text><rect class="cls-5" x="1641.22" y="1572.39" width="295.27" height="44.77"/><text class="cls-3" transform="translate(1656.22 1604.17)"><tspan class="cls-37">C</tspan><tspan x="18.2" y="0">e</tspan><tspan class="cls-33" x="34.23" y="0">n</tspan><tspan x="51.85" y="0">t</tspan><tspan class="cls-20" x="62.44" y="0">r</tspan><tspan x="72.58" y="0">e Spo</tspan><tspan class="cls-26" x="146.92" y="0">r</tspan><tspan x="158.14" y="0">tif </tspan><tspan class="cls-28" x="192.34" y="0">A</tspan><tspan class="cls-18" x="211.82" y="0">r</tspan><tspan class="cls-13" x="222.4" y="0">lon</tspan></text><rect class="cls-2" x="1917.08" y="1346.78" width="193.55" height="44.77"/><text class="cls-3" transform="translate(1932.08 1378.56)"><tspan class="cls-9">P</tspan><tspan x="16.86" y="0">hilippeville</tspan></text><rect class="cls-2" x="1929.38" y="1026.07" width="168.95" height="44.77"/><text class="cls-3" transform="translate(1944.38 1057.84)">Lib<tspan class="cls-9" x="40.78" y="0">r</tspan><tspan class="cls-8" x="51.08" y="0">amo</tspan><tspan class="cls-38" x="110.74" y="0">n</tspan><tspan class="cls-8" x="128.36" y="0">t</tspan></text><rect class="cls-2" x="103.53" y="112.79" width="138.5" height="44.77"/><text class="cls-3" transform="translate(118.53 144.57)"><tspan xml:space="preserve">                </tspan></text><rect class="cls-23" x="103.79" y="197.53" width="138.5" height="44.77"/><text class="cls-3" transform="translate(118.79 229.31)"><tspan xml:space="preserve">                </tspan></text><rect class="cls-5" x="103.79" y="287.53" width="138.5" height="44.77"/><text class="cls-3" transform="translate(118.79 319.31)"><tspan xml:space="preserve">                </tspan></text><text class="cls-39" transform="translate(275.79 142.09)"><tspan class="cls-40">V</tspan><tspan x="17.34" y="0">ille</tspan></text><text class="cls-39" transform="translate(275.79 319.09)">Lieu de loisir</text><text class="cls-39" transform="translate(275.79 226.09)"><tspan class="cls-11">R</tspan><tspan x="17.34" y="0">estau</tspan><tspan class="cls-9" x="89.66" y="0">r</tspan><tspan class="cls-8" x="99.96" y="0">a</tspan><tspan class="cls-33" x="115.38" y="0">n</tspan><tspan class="cls-41" x="133" y="0">t</tspan></text><rect class="cls-42" x="1246.57" y="3085.87" width="50.52" height="31.74"/><text class="cls-43" transform="translate(1261.57 3107.61)">78</text><rect class="cls-44" x="1356.39" y="2811.39" width="50.52" height="31.74"/><text class="cls-43" transform="translate(1371.39 2833.13)">59</text><rect class="cls-45" x="1553.26" y="2811.39" width="60.78" height="31.74"/><text class="cls-43" transform="translate(1568.26 2833.13)">153</text><rect class="cls-45" x="1471.39" y="3084.39" width="50.52" height="31.74"/><text class="cls-43" transform="translate(1486.39 3106.13)">36</text><rect class="cls-44" x="1285.39" y="3195.27" width="50.52" height="31.74"/><text class="cls-43" transform="translate(1300.39 3217.01)">81</text><rect class="cls-42" x="1294.17" y="2504.34" width="50.52" height="31.74"/><text class="cls-43" transform="translate(1309.17 2526.08)">71</text><rect class="cls-45" x="1223.09" y="2182.5" width="60.78" height="31.74"/><text class="cls-43" transform="translate(1238.09 2204.24)">188</text><rect class="cls-45" x="1362.09" y="2402.7" width="60.78" height="31.74"/><text class="cls-43" transform="translate(1377.09 2424.44)">193</text><rect class="cls-42" x="1081.09" y="2402.73" width="60.78" height="31.74"/><text class="cls-43" transform="translate(1096.09 2424.47)">150</text><rect class="cls-44" x="1372.35" y="2262.44" width="40.26" height="31.74"/><text class="cls-43" transform="translate(1387.35 2284.18)">3</text><rect class="cls-44" x="1093.09" y="2262.77" width="60.78" height="31.74"/><text class="cls-43" transform="translate(1108.09 2284.51)">126</text><rect class="cls-45" x="1161.22" y="2504.9" width="50.52" height="31.74"/><text class="cls-43" transform="translate(1176.22 2526.64)">49</text><rect class="cls-44" x="1194.22" y="2646.08" width="50.52" height="31.74"/><text class="cls-43" transform="translate(1209.22 2667.82)">30</text><rect class="cls-45" x="991.09" y="2544.18" width="60.78" height="31.74"/><text class="cls-43" transform="translate(1006.09 2565.92)">147</text><rect class="cls-44" x="1702.73" y="2451.05" width="50.52" height="31.74"/><text class="cls-43" transform="translate(1717.73 2472.79)">83</text><rect class="cls-42" x="1638.28" y="2336.73" width="60.78" height="31.74"/><text class="cls-43" transform="translate(1653.28 2358.47)">249</text><rect class="cls-44" x="1801.28" y="2336.43" width="60.78" height="31.74"/><text class="cls-43" transform="translate(1816.28 2358.17)">170</text><rect class="cls-45" x="1756.28" y="2057.97" width="60.78" height="31.74"/><text class="cls-43" transform="translate(1771.28 2079.71)">165</text><rect class="cls-42" x="653.45" y="2174.28" width="60.78" height="31.74"/><text class="cls-43" transform="translate(668.45 2196.02)">169</text><rect class="cls-42" x="725.45" y="1655.92" width="60.78" height="31.74"/><text class="cls-43" transform="translate(740.45 1677.66)">233</text><rect class="cls-42" x="830.45" y="1794.92" width="60.78" height="31.74"/><text class="cls-43" transform="translate(845.45 1816.66)">144</text><rect class="cls-44" x="514.58" y="1923.92" width="50.52" height="31.74"/><text class="cls-43" transform="translate(529.58 1945.66)">42</text><rect class="cls-45" x="243.59" y="1876.92" width="40.26" height="31.74"/><text class="cls-43" transform="translate(258.59 1898.66)">4</text><rect class="cls-42" x="1497.17" y="1969.83" width="60.78" height="31.74"/><text class="cls-43" transform="translate(1512.17 1991.57)">252</text><rect class="cls-44" x="1218.17" y="1870.83" width="60.78" height="31.74"/><text class="cls-43" transform="translate(1233.17 1892.57)">127</text><rect class="cls-45" x="998.13" y="2018.78" width="60.85" height="31.84"/><text class="cls-43" transform="translate(1013.15 2040.52) rotate(0.19)">174</text><rect class="cls-44" x="1228.52" y="1327.45" width="50.52" height="31.74"/><text class="cls-43" transform="translate(1243.52 1349.19)">70</text><rect class="cls-42" x="1098.39" y="1601.45" width="60.78" height="31.74"/><text class="cls-43" transform="translate(1113.39 1623.19)">221</text><rect class="cls-42" x="1335.39" y="1601.45" width="60.78" height="31.74"/><text class="cls-43" transform="translate(1350.39 1623.19)">102</text><rect class="cls-44" x="1000.52" y="1327.45" width="50.52" height="31.74"/><text class="cls-43" transform="translate(1015.52 1349.19)">31</text><rect class="cls-42" x="1221.39" y="1488.45" width="60.78" height="31.74"/><text class="cls-43" transform="translate(1236.39 1510.19)">123</text><rect class="cls-42" x="1333.52" y="1054.93" width="50.52" height="31.74"/><text class="cls-43" transform="translate(1348.52 1076.67)">70</text><rect class="cls-42" x="1241.39" y="1168.93" width="60.78" height="31.74"/><text class="cls-43" transform="translate(1256.39 1190.67)">102</text><rect class="cls-44" x="1456.52" y="1327.93" width="50.52" height="31.74"/><text class="cls-43" transform="translate(1471.52 1349.67)">94</text><rect class="cls-45" x="1565.52" y="1054.93" width="50.52" height="31.74"/><text class="cls-43" transform="translate(1580.52 1076.67)">50</text><rect class="cls-45" x="1356.52" y="816.85" width="50.52" height="31.74"/><text class="cls-43" transform="translate(1371.52 838.59)">26</text><rect class="cls-44" x="1452.52" y="580.85" width="50.52" height="31.74"/><text class="cls-43" transform="translate(1467.52 602.59)">80</text><rect class="cls-44" x="1553.52" y="816.85" width="50.52" height="31.74"/><text class="cls-43" transform="translate(1568.52 838.59)">45</text><rect class="cls-44" x="1340.52" y="482.35" width="50.52" height="31.74"/><text class="cls-43" transform="translate(1355.52 504.09)">28</text><rect class="cls-44" x="1453.52" y="263.78" width="50.52" height="31.74"/><text class="cls-43" transform="translate(1468.52 285.52)">40</text><rect class="cls-44" x="1558.52" y="482.71" width="50.52" height="31.74"/><text class="cls-43" transform="translate(1573.52 504.45)">53</text><rect class="cls-45" x="1456.52" y="946.55" width="50.52" height="31.74"/><text class="cls-43" transform="translate(1471.52 968.29)">60</text><rect class="cls-44" x="1820.92" y="1131.55" width="50.52" height="31.74"/><text class="cls-43" transform="translate(1835.92 1153.29)">26</text><rect class="cls-45" x="1810.79" y="988.55" width="60.78" height="31.74"/><text class="cls-43" transform="translate(1825.79 1010.29)">120</text><rect class="cls-45" x="1988.92" y="1181.06" width="50.52" height="31.74"/><text class="cls-43" transform="translate(2003.92 1202.8)">83</text><rect class="cls-42" x="1878.79" y="1461.49" width="60.78" height="31.74"/><text class="cls-43" transform="translate(1893.79 1483.23)">138</text><rect class="cls-42" x="1762.92" y="1743.09" width="50.52" height="31.74"/><text class="cls-43" transform="translate(1777.92 1764.83)">97</text><rect class="cls-42" x="103.61" y="439.58" width="138.5" height="44.77"/><text class="cls-3" transform="translate(118.61 471.36)"><tspan xml:space="preserve">                </tspan></text><rect class="cls-45" x="103.87" y="524.33" width="138.5" height="44.77"/><text class="cls-3" transform="translate(118.87 556.1)"><tspan xml:space="preserve">                </tspan></text><rect class="cls-44" x="103.87" y="614.33" width="138.5" height="44.77"/><text class="cls-3" transform="translate(118.87 646.1)"><tspan xml:space="preserve">                </tspan></text><text class="cls-39" transform="translate(275.87 468.89)"><tspan class="cls-16">A</tspan><tspan x="19.19" y="0">u</tspan><tspan class="cls-12" x="36.82" y="0">t</tspan><tspan class="cls-13" x="47.21" y="0">o</tspan><tspan class="cls-20" x="64.77" y="0">r</tspan><tspan x="74.91" y="0">ou</tspan><tspan class="cls-12" x="110.1" y="0">t</tspan><tspan x="120.5" y="0">e</tspan></text><text class="cls-39" transform="translate(275.87 645.89)"><tspan class="cls-46">D</tspan><tspan x="21.43" y="0">épa</tspan><tspan class="cls-26" x="71.07" y="0">r</tspan><tspan class="cls-47" x="82.3" y="0">t</tspan><tspan x="92.7" y="0">eme</tspan><tspan class="cls-33" x="151.42" y="0">n</tspan><tspan x="169.05" y="0">tale</tspan></text><text class="cls-39" transform="translate(275.87 552.89)">N<tspan class="cls-33" x="21.05" y="0">a</tspan><tspan class="cls-8" x="36.34" y="0">tionale</tspan></text><text class="cls-39" transform="translate(148.63 723.73)">999</text><text class="cls-39" transform="translate(276.24 723.73)"><tspan class="cls-48">K</tspan><tspan class="cls-13" x="17.66" y="0">ilomét</tspan><tspan class="cls-9" x="103.54" y="0">r</tspan><tspan x="113.84" y="0">age</tspan></text><rect class="cls-1" x="38.85" y="43.44" width="544" height="734"/><rect class="cls-49" x="83.68" width="210.67" height="88.18"/><text class="cls-50" transform="translate(101.68 58.18)"><tspan class="cls-51">L</tspan><tspan x="21.98" y="0">égende</tspan></text></g></g></svg>