<svg id="Layer_1" data-name="Layer 1" xmlns="http://www.w3.org/2000/svg" viewBox="0 0 2282.54 3464.15"><defs><style>.cls-1{fill:none;stroke:#000;stroke-miterlimit:10;stroke-width:5px;}.cls-2{fill:#fc5c65;}.cls-3,.cls-39,.cls-7{font-size:31.99px;}.cls-3,.cls-43,.cls-49,.cls-7{fill:#fff;}.cls-3,.cls-39,.cls-43,.cls-50,.cls-7{font-family:MyriadPro-Regular, Myriad Pro;}.cls-4{letter-spacing:0.01em;}.cls-5{fill:#26de81;}.cls-6{letter-spacing:0em;}.cls-28,.cls-7{letter-spacing:0em;}.cls-8{letter-spacing:0em;}.cls-9{letter-spacing:0em;}.cls-10{letter-spacing:-0.01em;}.cls-11{letter-spacing:0em;}.cls-12{letter-spacing:-0.01em;}.cls-13{letter-spacing:0em;}.cls-14{letter-spacing:-0.03em;}.cls-15{letter-spacing:-0.01em;}.cls-16{letter-spacing:-0.01em;}.cls-17{letter-spacing:-0.02em;}.cls-18{letter-spacing:0em;}.cls-19{letter-spacing:-0.05em;}.cls-20{letter-spacing:-0.01em;}.cls-21{letter-spacing:-0.01em;}.cls-22{letter-spacing:-0.03em;}.cls-23{fill:#fd9644;}.cls-24{letter-spacing:-0.03em;}.cls-25{letter-spacing:0em;}.cls-26{letter-spacing:0.02em;}.cls-27{letter-spacing:-0.01em;}.cls-29{letter-spacing:-0.04em;}.cls-30{letter-spacing:-0.06em;}.cls-31{letter-spacing:-0.07em;}.cls-32{letter-spacing:-0.01em;}.cls-33{letter-spacing:0em;}.cls-34{letter-spacing:-0.04em;}.cls-35{letter-spacing:-0.02em;}.cls-36{letter-spacing:-0.01em;}.cls-37{letter-spacing:-0.01em;}.cls-38{letter-spacing:0em;}.cls-40{letter-spacing:-0.02em;}.cls-41{letter-spacing:0em;}.cls-42{fill:#a55eea;}.cls-43{font-size:20px;}.cls-44{fill:#45aaf2;}.cls-45{fill:#4b7bec;}.cls-46{letter-spacing:0em;}.cls-47{letter-spacing:-0.01em;}.cls-48{letter-spacing:0.01em;}.cls-50{font-size:48px;}.cls-51{letter-spacing:-0.01em;}</style></defs><line class="cls-1" x1="1237.13" y1="3290.28" x2="1687.27" y2="3290.28"/><line class="cls-1" x1="1078.3" y1="2263.91" x2="1331.8" y2="2457.43"/><line class="cls-1" x1="1331" y1="2135.96" x2="1332.6" y2="2457.43"/><line class="cls-1" x1="1593.3" y1="2268.71" x2="1332.6" y2="2454.24"/><line class="cls-1" x1="1332.6" y1="2454.24" x2="1636.48" y2="2550.2"/><line class="cls-1" x1="1332.6" y1="2457.43" x2="1462.15" y2="2751.72"/><line class="cls-1" x1="1332.6" y1="2454.24" x2="1196.65" y2="2750.12"/><line class="cls-1" x1="1332.6" y1="2457.43" x2="1025.52" y2="2550.2"/><line class="cls-1" x1="1237.1" y1="3298.24" x2="1463.29" y2="3072.05"/><line class="cls-1" x1="1688.18" y1="3297.82" x2="1461.99" y2="3071.64"/><line class="cls-1" x1="1636.48" y1="2550.2" x2="1687.66" y2="3297.1"/><line class="cls-1" x1="1462.15" y1="2751.72" x2="1462.15" y2="3071.59"/><line class="cls-1" x1="1637.28" y1="2549.4" x2="1863.59" y2="2323.09"/><line class="cls-1" x1="1636.48" y1="2550.2" x2="1956.35" y2="2550.2"/><line class="cls-1" x1="1461.35" y1="2740.92" x2="1196.65" y2="2740.92"/><line class="cls-1" x1="1863.59" y1="2323.09" x2="1956.35" y2="2550.2"/><line class="cls-1" x1="1864.39" y1="2322.29" x2="1864.39" y2="2002.42"/><line class="cls-1" x1="1331.8" y1="2136.76" x2="1864.39" y2="2002.42"/><line class="cls-1" x1="1865.19" y1="2002.42" x2="1865.19" y2="1682.54"/><line class="cls-1" x1="1024.72" y1="2551" x2="1195.86" y2="2750.92"/><line class="cls-1" x1="1026.32" y1="2551" x2="478.54" y2="1976.03"/><line class="cls-1" x1="1078.3" y1="2263.91" x2="809.61" y2="2089.58"/><line class="cls-1" x1="810.41" y1="2088.78" x2="1330.2" y2="2135.16"/><line class="cls-1" x1="478.54" y1="1976.03" x2="809.61" y2="2089.58"/><line class="cls-1" x1="1329.4" y1="2135.96" x2="1329.4" y2="1816.09"/><line class="cls-1" x1="478.54" y1="1976.03" x2="1329.4" y2="1814.49"/><line class="cls-1" x1="1330.2" y1="1815.29" x2="1103.09" y2="1588.18"/><line class="cls-1" x1="1329.4" y1="1814.49" x2="1556.51" y2="1587.38"/><line class="cls-1" x1="1557.31" y1="1588.18" x2="1103.09" y2="1588.18"/><line class="cls-1" x1="1557.31" y1="1588.18" x2="1557.31" y2="1268.31"/><line class="cls-1" x1="478.54" y1="1976.03" x2="1103.89" y2="1587.38"/><line class="cls-1" x1="1103.89" y1="1588.18" x2="1103.89" y2="1268.31"/><line class="cls-1" x1="1106.29" y1="1268.31" x2="1557.31" y2="1268.31"/><line class="cls-1" x1="479.34" y1="1976.03" x2="159.47" y2="1976.03"/><line class="cls-1" x1="1103.89" y1="1587.38" x2="1556.51" y2="1267.51"/><line class="cls-1" x1="1557.31" y1="1268.31" x2="1330.2" y2="1041.2"/><line class="cls-1" x1="1556.51" y1="1267.51" x2="1782.82" y2="1041.2"/><line class="cls-1" x1="1782.82" y1="1041.2" x2="1330.2" y2="1041.2"/><line class="cls-1" x1="1865.19" y1="1683.34" x2="2092.3" y2="1456.23"/><line class="cls-1" x1="2092.3" y1="1456.23" x2="2092.3" y2="1136.36"/><line class="cls-1" x1="2092.3" y1="1136.36" x2="1782.02" y2="1040.4"/><line class="cls-1" x1="2092.3" y1="1456.23" x2="1782.02" y2="1040.4"/><line class="cls-1" x1="1782.02" y1="1040.4" x2="1555.71" y2="814.09"/><line class="cls-1" x1="1555.31" y1="815.29" x2="1554.91" y2="535"/><line class="cls-1" x1="1555.71" y1="812.49" x2="1330.2" y2="1041.2"/><line class="cls-1" x1="1554.91" y1="535" x2="1330.2" y2="1041.2"/><line class="cls-1" x1="1554.91" y1="535" x2="1554.91" y2="173.54"/><line class="cls-1" x1="1555.71" y1="174.34" x2="1782.82" y2="1041.2"/><line class="cls-1" x1="1331" y1="1040.4" x2="1554.91" y2="173.54"/><rect class="cls-2" x="1815.66" y="1970.5" width="96.21" height="44.77"/><text class="cls-3" transform="translate(1830.66 2002.28)"><tspan class="cls-4">M</tspan><tspan x="25.91" y="0">etz</tspan></text><rect class="cls-5" x="1479.86" y="2233.49" width="225.09" height="44.77"/><text class="cls-3" transform="translate(1494.86 2265.26)"><tspan class="cls-6">M</tspan><tspan x="25.81" y="0">useum Dijon</tspan></text><rect class="cls-2" x="1774.34" y="2290.49" width="176.12" height="44.77"/><text class="cls-7" transform="translate(1789.34 2322.26)">S<tspan class="cls-8" x="15.67" y="0">t</tspan><tspan class="cls-9" x="26.26" y="0">r</tspan><tspan class="cls-8" x="36.56" y="0">asbou</tspan><tspan class="cls-10" x="118.03" y="0">r</tspan><tspan class="cls-8" x="128.24" y="0">g</tspan></text><rect class="cls-2" x="1560.01" y="2518.52" width="158.78" height="44.77"/><text class="cls-3" transform="translate(1575.01 2550.29)"><tspan class="cls-11">B</tspan><tspan x="17.46" y="0">esan</tspan><tspan class="cls-12" x="79.33" y="0">c</tspan><tspan class="cls-13" x="93.47" y="0">on</tspan></text><rect class="cls-2" x="1404.01" y="3039.94" width="120.78" height="44.77"/><text class="cls-3" transform="translate(1419.01 3071.72)"><tspan class="cls-4">M</tspan><tspan x="25.91" y="0">â</tspan><tspan class="cls-12" x="41.33" y="0">c</tspan><tspan class="cls-13" x="55.47" y="0">on</tspan></text><rect class="cls-2" x="1188.25" y="3265.94" width="94.29" height="44.77"/><text class="cls-3" transform="translate(1203.25 3297.72)"><tspan class="cls-14">L</tspan><tspan class="cls-15" x="14.23" y="0">y</tspan><tspan x="28.98" y="0">on</tspan></text><rect class="cls-2" x="1329.13" y="2719.19" width="270.54" height="44.77"/><text class="cls-3" transform="translate(1344.13 2750.97)">Châlon-Su<tspan class="cls-9" x="137.8" y="0">r</tspan><tspan x="148.1" y="0">-</tspan><tspan class="cls-6" x="157.92" y="0">S</tspan><tspan class="cls-8" x="173.78" y="0">aône</tspan></text><rect class="cls-2" x="1278.94" y="2427.72" width="101.87" height="44.77"/><text class="cls-3" transform="translate(1293.94 2459.49)">Dijon</text><rect class="cls-2" x="956.91" y="2518.72" width="133.93" height="44.77"/><text class="cls-3" transform="translate(971.91 2550.49)"><tspan class="cls-16">A</tspan><tspan x="19.19" y="0">u</tspan><tspan class="cls-17" x="36.82" y="0">x</tspan><tspan x="51.15" y="0">e</tspan><tspan class="cls-18" x="67.17" y="0">r</tspan><tspan class="cls-15" x="77.76" y="0">r</tspan><tspan x="87.9" y="0">e</tspan></text><rect class="cls-2" x="1272.15" y="2104.56" width="115.41" height="44.77"/><text class="cls-3" transform="translate(1287.19 2136.33)"><tspan class="cls-19">T</tspan><tspan class="cls-20" x="14.46" y="0">r</tspan><tspan class="cls-21" x="24.6" y="0">o</tspan><tspan class="cls-15" x="41.94" y="0">y</tspan><tspan x="56.68" y="0">es</tspan></text><rect class="cls-2" x="1274.78" y="1784.15" width="110.19" height="44.77"/><text class="cls-3" transform="translate(1289.78 1815.92)"><tspan class="cls-11">R</tspan><tspan x="17.34" y="0">eims</tspan></text><rect class="cls-2" x="1065.02" y="1555.75" width="83.71" height="44.77"/><text class="cls-3" transform="translate(1080.02 1587.52)">Lille</text><rect class="cls-2" x="1507.93" y="1236.76" width="103.89" height="44.77"/><text class="cls-3" transform="translate(1522.93 1268.53)"><tspan class="cls-4">M</tspan><tspan x="25.91" y="0">ons</tspan></text><rect class="cls-2" x="1707.34" y="1009.3" width="151.07" height="44.77"/><text class="cls-3" transform="translate(1722.34 1041.07)">Cha<tspan class="cls-11" x="51.72" y="0">r</tspan><tspan x="62.31" y="0">le</tspan><tspan class="cls-20" x="85.88" y="0">r</tspan><tspan class="cls-13" x="96.02" y="0">oi</tspan></text><rect class="cls-2" x="1494.26" y="503.18" width="121.23" height="44.77"/><text class="cls-3" transform="translate(1509.26 534.96)">Namur</text><rect class="cls-5" x="1476.87" y="147.84" width="152" height="44.77"/><text class="cls-3" transform="translate(1491.87 179.62)"><tspan class="cls-22">W</tspan><tspan x="26.01" y="0">alibi BE</tspan></text><rect class="cls-23" x="1485.98" y="782.22" width="139.78" height="44.77"/><text class="cls-3" transform="translate(1500.98 813.99)"><tspan class="cls-24">F</tspan><tspan class="cls-25" x="14.75" y="0">r</tspan><tspan x="25.05" y="0">anca</tspan><tspan class="cls-26" x="87.96" y="0">r</tspan><tspan x="99.19" y="0">t</tspan></text><rect class="cls-2" x="1257.09" y="1009.54" width="149.57" height="44.77"/><text class="cls-3" transform="translate(1272.09 1041.31)">Bru<tspan class="cls-17" x="45.42" y="0">x</tspan><tspan x="59.75" y="0">elles</tspan></text><rect class="cls-5" x="1012.86" y="1236.96" width="186.03" height="44.77"/><text class="cls-3" transform="translate(1027.86 1268.73)"><tspan class="cls-6">M</tspan><tspan x="25.81" y="0">usée </tspan><tspan class="cls-27" x="94.94" y="0">L</tspan><tspan x="109.59" y="0">ens</tspan></text><rect class="cls-23" x="1483.75" y="1555.62" width="142.24" height="44.77"/><text class="cls-3" transform="translate(1498.75 1587.39)"><tspan class="cls-28">A</tspan><tspan x="19.48" y="0">l</tspan><tspan class="cls-29" x="27.03" y="0"> </tspan><tspan class="cls-30" x="32.5" y="0">T</tspan><tspan class="cls-8" x="46.35" y="0">aglio</tspan></text><rect class="cls-5" x="78.42" y="1943.61" width="161.11" height="44.77"/><text class="cls-3" transform="translate(93.45 1975.38)"><tspan class="cls-31">T</tspan><tspan x="13.63" y="0">our Ei</tspan><tspan class="cls-32" x="89.27" y="0">ff</tspan><tspan x="107.51" y="0">el</tspan></text><rect class="cls-2" x="432.82" y="1944.61" width="92.34" height="44.77"/><text class="cls-3" transform="translate(447.82 1976.38)"><tspan class="cls-24">P</tspan><tspan x="16.19" y="0">a</tspan><tspan class="cls-18" x="31.6" y="0">r</tspan><tspan class="cls-13" x="42.19" y="0">is</tspan></text><rect class="cls-5" x="681.68" y="2058.13" width="255.73" height="44.77"/><text class="cls-3" transform="translate(696.68 2089.91)">DisneyLand <tspan class="cls-24" x="163.39" y="0">P</tspan><tspan x="179.57" y="0">a</tspan><tspan class="cls-11" x="194.99" y="0">r</tspan><tspan x="205.58" y="0">is</tspan></text><rect class="cls-23" x="1006.57" y="2232.13" width="145.95" height="44.77"/><text class="cls-3" transform="translate(1021.57 2263.91)">E<tspan class="cls-17" x="15.74" y="0">x</tspan><tspan class="cls-12" x="30.07" y="0">c</tspan><tspan x="44.21" y="0">elsior</tspan></text><rect class="cls-23" x="1128.14" y="2719.72" width="136.8" height="44.77"/><text class="cls-3" transform="translate(1143.14 2751.49)"><tspan class="cls-33">E</tspan><tspan class="cls-8" x="15.61" y="0">c</tspan><tspan class="cls-11" x="29.94" y="0">r</tspan><tspan x="40.53" y="0">it</tspan><tspan class="cls-34" x="58.6" y="0"> </tspan><tspan class="cls-35" x="64.23" y="0">V</tspan><tspan x="81.57" y="0">in</tspan></text><rect class="cls-23" x="1497.19" y="3266.24" width="374.02" height="44.77"/><text class="cls-3" transform="translate(1512.19 3298.01)">B<tspan class="cls-25" x="17.34" y="0">r</tspan><tspan x="27.64" y="0">asse</tspan><tspan class="cls-18" x="84.41" y="0">r</tspan><tspan class="cls-13" x="95" y="0">ie </tspan><tspan class="cls-11" x="125.29" y="0">B</tspan><tspan class="cls-13" x="142.76" y="0">ou</tspan><tspan class="cls-36" x="177.94" y="0">r</tspan><tspan x="188.15" y="0">g-En-B</tspan><tspan class="cls-20" x="276.49" y="0">r</tspan><tspan class="cls-8" x="286.63" y="0">esse</tspan></text><rect class="cls-23" x="1877.87" y="2518.56" width="156.8" height="44.77"/><text class="cls-3" transform="translate(1892.87 2550.33)"><tspan class="cls-27">L</tspan><tspan x="14.65" y="0">es </tspan><tspan class="cls-28" x="50.12" y="0">A</tspan><tspan x="69.6" y="0">li</tspan><tspan class="cls-21" x="84.64" y="0">z</tspan><tspan x="98.1" y="0">és</tspan></text><rect class="cls-5" x="1719.64" y="1650.53" width="295.27" height="44.77"/><text class="cls-3" transform="translate(1734.64 1682.31)"><tspan class="cls-37">C</tspan><tspan x="18.2" y="0">e</tspan><tspan class="cls-33" x="34.23" y="0">n</tspan><tspan x="51.85" y="0">t</tspan><tspan class="cls-20" x="62.44" y="0">r</tspan><tspan x="72.58" y="0">e Spo</tspan><tspan class="cls-26" x="146.92" y="0">r</tspan><tspan x="158.14" y="0">tif </tspan><tspan class="cls-28" x="192.34" y="0">A</tspan><tspan class="cls-18" x="211.82" y="0">r</tspan><tspan class="cls-13" x="222.4" y="0">lon</tspan></text><rect class="cls-2" x="1995.5" y="1424.92" width="193.55" height="44.77"/><text class="cls-3" transform="translate(2010.5 1456.7)"><tspan class="cls-9">P</tspan><tspan x="16.86" y="0">hilippeville</tspan></text><rect class="cls-2" x="2007.8" y="1104.21" width="168.95" height="44.77"/><text class="cls-3" transform="translate(2022.8 1135.98)">Lib<tspan class="cls-9" x="40.78" y="0">r</tspan><tspan class="cls-8" x="51.08" y="0">amo</tspan><tspan class="cls-38" x="110.74" y="0">n</tspan><tspan class="cls-8" x="128.36" y="0">t</tspan></text><rect class="cls-2" x="181.95" y="190.93" width="138.5" height="44.77"/><text class="cls-3" transform="translate(196.95 222.71)"><tspan xml:space="preserve">                </tspan></text><rect class="cls-23" x="182.21" y="275.67" width="138.5" height="44.77"/><text class="cls-3" transform="translate(197.21 307.45)"><tspan xml:space="preserve">                </tspan></text><rect class="cls-5" x="182.21" y="365.67" width="138.5" height="44.77"/><text class="cls-3" transform="translate(197.21 397.45)"><tspan xml:space="preserve">                </tspan></text><text class="cls-39" transform="translate(354.21 220.23)"><tspan class="cls-40">V</tspan><tspan x="17.34" y="0">ille</tspan></text><text class="cls-39" transform="translate(354.21 397.23)">Lieu de loisir</text><text class="cls-39" transform="translate(354.21 304.23)"><tspan class="cls-11">R</tspan><tspan x="17.34" y="0">estau</tspan><tspan class="cls-9" x="89.66" y="0">r</tspan><tspan class="cls-8" x="99.96" y="0">a</tspan><tspan class="cls-33" x="115.38" y="0">n</tspan><tspan class="cls-41" x="133" y="0">t</tspan></text><rect class="cls-42" x="1324.99" y="3164.01" width="50.52" height="31.74"/><text class="cls-43" transform="translate(1339.99 3185.75)">78</text><rect class="cls-44" x="1434.81" y="2889.53" width="50.52" height="31.74"/><text class="cls-43" transform="translate(1449.81 2911.27)">59</text><rect class="cls-45" x="1631.68" y="2889.53" width="60.78" height="31.74"/><text class="cls-43" transform="translate(1646.68 2911.27)">153</text><rect class="cls-45" x="1549.81" y="3162.53" width="50.52" height="31.74"/><text class="cls-43" transform="translate(1564.81 3184.27)">36</text><rect class="cls-44" x="1363.81" y="3273.41" width="50.52" height="31.74"/><text class="cls-43" transform="translate(1378.81 3295.15)">81</text><rect class="cls-42" x="1372.59" y="2582.48" width="50.52" height="31.74"/><text class="cls-43" transform="translate(1387.59 2604.22)">71</text><rect class="cls-45" x="1301.51" y="2260.64" width="60.78" height="31.74"/><text class="cls-43" transform="translate(1316.51 2282.38)">188</text><rect class="cls-45" x="1440.51" y="2480.84" width="60.78" height="31.74"/><text class="cls-43" transform="translate(1455.51 2502.58)">193</text><rect class="cls-42" x="1159.51" y="2480.87" width="60.78" height="31.74"/><text class="cls-43" transform="translate(1174.51 2502.61)">150</text><rect class="cls-44" x="1450.77" y="2340.58" width="40.26" height="31.74"/><text class="cls-43" transform="translate(1465.77 2362.32)">3</text><rect class="cls-44" x="1171.51" y="2340.91" width="60.78" height="31.74"/><text class="cls-43" transform="translate(1186.51 2362.65)">126</text><rect class="cls-45" x="1239.64" y="2583.04" width="50.52" height="31.74"/><text class="cls-43" transform="translate(1254.64 2604.78)">49</text><rect class="cls-44" x="1272.64" y="2724.22" width="50.52" height="31.74"/><text class="cls-43" transform="translate(1287.64 2745.96)">30</text><rect class="cls-45" x="1069.51" y="2622.32" width="60.78" height="31.74"/><text class="cls-43" transform="translate(1084.51 2644.06)">147</text><rect class="cls-44" x="1781.15" y="2529.19" width="50.52" height="31.74"/><text class="cls-43" transform="translate(1796.15 2550.93)">83</text><rect class="cls-42" x="1716.7" y="2414.87" width="60.78" height="31.74"/><text class="cls-43" transform="translate(1731.7 2436.61)">249</text><rect class="cls-44" x="1879.7" y="2414.57" width="60.78" height="31.74"/><text class="cls-43" transform="translate(1894.7 2436.31)">170</text><rect class="cls-45" x="1834.7" y="2136.11" width="60.78" height="31.74"/><text class="cls-43" transform="translate(1849.7 2157.85)">165</text><rect class="cls-42" x="731.87" y="2252.42" width="60.78" height="31.74"/><text class="cls-43" transform="translate(746.87 2274.16)">169</text><rect class="cls-42" x="803.87" y="1734.06" width="60.78" height="31.74"/><text class="cls-43" transform="translate(818.87 1755.8)">233</text><rect class="cls-42" x="908.87" y="1873.06" width="60.78" height="31.74"/><text class="cls-43" transform="translate(923.87 1894.8)">144</text><rect class="cls-44" x="593" y="2002.06" width="50.52" height="31.74"/><text class="cls-43" transform="translate(608 2023.8)">42</text><rect class="cls-45" x="322.01" y="1955.06" width="40.26" height="31.74"/><text class="cls-43" transform="translate(337.01 1976.8)">4</text><rect class="cls-42" x="1575.59" y="2047.97" width="60.78" height="31.74"/><text class="cls-43" transform="translate(1590.59 2069.71)">252</text><rect class="cls-44" x="1296.59" y="1948.97" width="60.78" height="31.74"/><text class="cls-43" transform="translate(1311.59 1970.71)">127</text><rect class="cls-45" x="1076.55" y="2096.84" width="60.85" height="31.84"/><text class="cls-43" transform="matrix(1, 0, 0, 1, 1091.57, 2118.58)">174</text><rect class="cls-44" x="1306.94" y="1405.59" width="50.52" height="31.74"/><text class="cls-43" transform="translate(1321.94 1427.33)">70</text><rect class="cls-42" x="1176.81" y="1679.59" width="60.78" height="31.74"/><text class="cls-43" transform="translate(1191.81 1701.33)">221</text><rect class="cls-42" x="1413.81" y="1679.59" width="60.78" height="31.74"/><text class="cls-43" transform="translate(1428.81 1701.33)">103</text><rect class="cls-44" x="1078.94" y="1405.59" width="50.52" height="31.74"/><text class="cls-43" transform="translate(1093.94 1427.33)">31</text><rect class="cls-42" x="1299.81" y="1566.59" width="60.78" height="31.74"/><text class="cls-43" transform="translate(1314.81 1588.33)">123</text><rect class="cls-42" x="1411.94" y="1133.07" width="50.52" height="31.74"/><text class="cls-43" transform="translate(1426.94 1154.81)">70</text><rect class="cls-42" x="1319.81" y="1247.07" width="60.78" height="31.74"/><text class="cls-43" transform="translate(1334.81 1268.81)">102</text><rect class="cls-44" x="1534.94" y="1406.07" width="50.52" height="31.74"/><text class="cls-43" transform="translate(1549.94 1427.81)">94</text><rect class="cls-45" x="1643.94" y="1133.07" width="50.52" height="31.74"/><text class="cls-43" transform="translate(1658.94 1154.81)">50</text><rect class="cls-45" x="1434.94" y="894.99" width="50.52" height="31.74"/><text class="cls-43" transform="translate(1449.94 916.73)">26</text><rect class="cls-44" x="1530.94" y="658.99" width="50.52" height="31.74"/><text class="cls-43" transform="translate(1545.94 680.73)">80</text><rect class="cls-44" x="1631.94" y="894.99" width="50.52" height="31.74"/><text class="cls-43" transform="translate(1646.94 916.73)">45</text><rect class="cls-44" x="1418.94" y="560.49" width="50.52" height="31.74"/><text class="cls-43" transform="translate(1433.94 582.23)">28</text><rect class="cls-44" x="1531.94" y="341.92" width="50.52" height="31.74"/><text class="cls-43" transform="translate(1546.94 363.66)">40</text><rect class="cls-44" x="1636.94" y="560.85" width="50.52" height="31.74"/><text class="cls-43" transform="translate(1651.94 582.59)">53</text><rect class="cls-45" x="1534.94" y="1024.69" width="50.52" height="31.74"/><text class="cls-43" transform="translate(1549.94 1046.43)">60</text><rect class="cls-44" x="1899.34" y="1209.69" width="50.52" height="31.74"/><text class="cls-43" transform="translate(1914.34 1231.43)">26</text><rect class="cls-45" x="1889.21" y="1066.69" width="60.78" height="31.74"/><text class="cls-43" transform="translate(1904.21 1088.43)">120</text><rect class="cls-45" x="2067.34" y="1259.2" width="50.52" height="31.74"/><text class="cls-43" transform="translate(2082.34 1280.94)">83</text><rect class="cls-42" x="1957.21" y="1539.63" width="60.78" height="31.74"/><text class="cls-43" transform="translate(1972.21 1561.37)">138</text><rect class="cls-42" x="1841.34" y="1821.23" width="50.52" height="31.74"/><text class="cls-43" transform="translate(1856.34 1842.97)">97</text><rect class="cls-42" x="182.03" y="517.73" width="138.5" height="44.77"/><text class="cls-3" transform="translate(197.03 549.5)"><tspan xml:space="preserve">                </tspan></text><rect class="cls-45" x="182.29" y="602.47" width="138.5" height="44.77"/><text class="cls-3" transform="translate(197.29 634.24)"><tspan xml:space="preserve">                </tspan></text><rect class="cls-44" x="182.29" y="692.47" width="138.5" height="44.77"/><text class="cls-3" transform="translate(197.29 724.24)"><tspan xml:space="preserve">                </tspan></text><text class="cls-39" transform="translate(354.29 547.03)"><tspan class="cls-16">A</tspan><tspan x="19.19" y="0">u</tspan><tspan class="cls-12" x="36.82" y="0">t</tspan><tspan class="cls-13" x="47.21" y="0">o</tspan><tspan class="cls-20" x="64.77" y="0">r</tspan><tspan x="74.91" y="0">ou</tspan><tspan class="cls-12" x="110.1" y="0">t</tspan><tspan x="120.5" y="0">e</tspan></text><text class="cls-39" transform="translate(354.29 724.03)"><tspan class="cls-46">D</tspan><tspan x="21.43" y="0">épa</tspan><tspan class="cls-26" x="71.07" y="0">r</tspan><tspan class="cls-47" x="82.3" y="0">t</tspan><tspan x="92.7" y="0">eme</tspan><tspan class="cls-33" x="151.42" y="0">n</tspan><tspan x="169.05" y="0">tale</tspan></text><text class="cls-39" transform="translate(354.29 631.03)">N<tspan class="cls-33" x="21.05" y="0">a</tspan><tspan class="cls-8" x="36.34" y="0">tionale</tspan></text><text class="cls-39" transform="translate(227.05 801.87)">999</text><text class="cls-39" transform="translate(354.66 801.87)"><tspan class="cls-48">K</tspan><tspan class="cls-13" x="17.66" y="0">ilomét</tspan><tspan class="cls-9" x="103.54" y="0">r</tspan><tspan x="113.84" y="0">age</tspan></text><rect class="cls-1" x="117.27" y="121.58" width="544" height="734"/><rect class="cls-49" x="162.1" y="78.14" width="210.67" height="88.18"/><text class="cls-50" transform="translate(180.1 136.32)"><tspan class="cls-51">L</tspan><tspan x="21.98" y="0">égende</tspan></text></svg>